<?xml version="1.0" encoding="UTF-8" standalone="no"?>
<!DOCTYPE svg PUBLIC "-//W3C//DTD SVG 1.1//EN" "http://www.w3.org/Graphics/SVG/1.1/DTD/svg11.dtd">
<svg width="100%" height="100%" viewBox="0 0 435 529" version="1.1" xmlns="http://www.w3.org/2000/svg" xmlns:xlink="http://www.w3.org/1999/xlink" xml:space="preserve" xmlns:serif="http://www.serif.com/" style="fill-rule:evenodd;clip-rule:evenodd;stroke-linecap:round;stroke-linejoin:round;stroke-miterlimit:1.5;">
    <g transform="matrix(1,0,0,1,-1070.49,-91.9976)">
        <g id="Layer2">
            <path d="M1099.95,379.065C1060.75,225.479 1052.33,100.589 1280,100C1520.37,99.379 1520.95,218.473 1470,380L1099.95,379.065Z" style="fill:rgb(4,255,0);"/>
            <path d="M1092.2,381.044C1093.11,384.579 1096.29,387.056 1099.93,387.065L1469.98,388C1473.48,388.009 1476.58,385.743 1477.63,382.407C1493.17,333.14 1503.92,287.74 1504.86,248.36C1505.84,207.296 1496.21,172.592 1471.19,146.261C1438.7,112.067 1379.26,91.743 1279.98,92C1185.57,92.244 1130.58,113.949 1100.87,149.087C1078.18,175.922 1069.81,210.844 1070.53,251.308C1071.21,290.185 1080.27,334.309 1092.2,381.044ZM1464.12,371.985C1478.22,326.495 1487.99,284.565 1488.86,247.978C1489.74,211.575 1481.77,180.624 1459.6,157.282C1429.16,125.247 1373.04,107.759 1280.02,108C1192.3,108.227 1140.7,126.769 1113.09,159.418C1092.79,183.422 1085.89,214.83 1086.53,251.025C1087.16,287.137 1095.34,327.89 1106.19,371.081L1464.12,371.985Z" style="fill:rgb(4,255,0);"/>
            <path d="M1130,495.872C1098.17,365.3 1100.94,254.137 1100,240C1097.57,203.672 1193.75,144.965 1290,145.44C1381.37,145.892 1483.21,217.635 1480,240C1477.35,258.499 1458,413.939 1450,495.872C1435.32,646.367 1169.23,656.811 1130,495.872Z" style="fill:white;"/>
            <path d="M1122.23,497.767C1146.87,598.87 1256.68,636.023 1344.18,615.015C1403.23,600.838 1451.74,560.45 1457.96,496.649C1465.95,414.831 1485.27,259.609 1487.92,241.136C1488.51,237.047 1487.32,231.716 1483.6,225.778C1479.61,219.402 1472.46,211.723 1462.76,203.649C1427.13,173.99 1355.92,137.766 1290.04,137.44C1220.51,137.097 1151.06,166.834 1116.47,197.477C1099.76,212.29 1091.17,227.846 1092.02,240.533C1092.97,254.746 1090.23,366.497 1122.23,497.767ZM1137.77,493.978C1106.11,364.104 1108.92,253.529 1107.98,239.467C1107.71,235.445 1109.32,231.122 1112.08,226.559C1115.46,220.968 1120.59,215.207 1127.09,209.452C1159.52,180.714 1224.75,153.118 1289.96,153.44C1352,153.747 1418.97,188.021 1452.53,215.947C1460.62,222.68 1466.71,228.954 1470.04,234.27C1471.21,236.141 1472.27,237.575 1472.08,238.864C1469.42,257.388 1450.04,413.047 1442.04,495.095C1436.52,551.691 1392.83,586.881 1340.45,599.457C1260.8,618.579 1160.2,586.002 1137.77,493.978Z" style="fill:white;"/>
            <path d="M1214.86,143.625C1292.33,166.291 1299.07,219.709 1290,280C1290,280 1411.83,145.151 1362.71,146.441C1356,146.617 1355.51,132.2 1351.45,128.136C1345.27,121.962 1275.6,111.142 1261.33,118.279C1256.95,120.468 1235.05,119.218 1233.17,121.095C1228.58,125.681 1223.17,127 1220.5,132.36C1218.83,135.684 1218.26,143.625 1214.86,143.625Z" style="fill:rgb(4,255,0);"/>
            <path d="M1258.12,110.95C1261.4,109.419 1266.71,108.355 1273.36,108.047C1286.56,107.436 1305.98,109.323 1322.48,112.051C1333.67,113.902 1343.54,116.154 1349.35,118.209C1353.28,119.598 1355.87,121.247 1357.1,122.479C1359.39,124.761 1361.27,129.175 1362.83,133.868C1363.29,135.247 1364.14,137.278 1364.66,138.459C1370.78,138.711 1374.96,140.778 1377.73,143.587C1380.88,146.781 1382.59,151.267 1382.36,157.023C1382.14,162.62 1379.87,169.932 1375.87,178.205C1356.57,218.083 1295.94,285.363 1295.94,285.363C1293.57,287.982 1289.77,288.741 1286.58,287.231C1283.39,285.722 1281.56,282.3 1282.09,278.81C1287.2,244.812 1287.51,213.069 1270.78,188.569C1259.77,172.445 1241.37,159.714 1212.62,151.303C1208.8,150.185 1206.38,146.429 1206.94,142.49C1207.29,140.096 1208.67,138.077 1210.59,136.862C1211.17,134.864 1212.49,130.482 1213.34,128.782C1215,125.466 1217.27,123.094 1219.92,121.054C1222.24,119.273 1225.03,117.916 1227.51,115.438C1228.48,114.466 1231.21,112.797 1235.55,112.336C1239.68,111.899 1246.75,111.876 1252.52,111.552C1254.68,111.43 1257.71,111.008 1258.12,110.95ZM1345.83,134.109C1343.16,133.3 1330.8,129.645 1319.87,127.836C1306.62,125.646 1291.37,123.994 1279.49,123.931C1272.97,123.896 1267.64,124.066 1264.91,125.434C1263.18,126.297 1259.65,127.088 1255.27,127.408C1249.79,127.808 1240.1,128.233 1237.08,128.361C1235.39,129.813 1233.65,131.003 1231.96,132.138C1230.32,133.242 1228.59,134.053 1227.65,135.938C1227.25,136.745 1226.9,137.812 1226.56,138.974C1254.38,148.701 1272.52,162.744 1284,179.545C1298.59,200.914 1302.38,227.077 1300.68,255.57C1319.52,233.401 1349.19,196.607 1361.47,171.236C1364.19,165.615 1366.06,160.703 1366.35,156.795C1366.4,156.126 1366.29,155.179 1366.25,154.827C1366.05,154.755 1365.71,154.642 1365.47,154.596C1364.73,154.455 1363.88,154.413 1362.92,154.438C1358.01,154.567 1354.08,152.125 1351.25,147.496C1349.63,144.828 1348.39,141.151 1347.23,137.675C1346.86,136.555 1346.18,134.932 1345.83,134.109Z" style="fill:rgb(4,255,0);"/>
            <g transform="matrix(1,0,0,1,41.1506,-10.1056)">
                <path d="M1096.16,309.881L1181.56,310.106L1138.86,236.764C1138.86,236.764 1095,309.881 1096.16,309.881Z" style="fill:rgb(31,183,224);"/>
                <path d="M1096.14,317.881L1181.54,318.106C1184.4,318.113 1187.06,316.586 1188.49,314.102C1189.92,311.619 1189.91,308.558 1188.47,306.081L1145.77,232.739C1144.35,230.294 1141.74,228.783 1138.91,228.764C1136.08,228.746 1133.45,230.223 1132,232.649C1132,232.649 1096.3,292.189 1090,304.096C1087.92,308.039 1088.2,310.884 1088.28,311.318C1088.74,313.817 1090.06,315.342 1091.45,316.348C1092.74,317.29 1094.29,317.881 1096.16,317.881L1096.14,317.881ZM1138.77,252.504C1130.67,266.057 1117.41,288.331 1109.58,301.917L1167.62,302.069L1138.77,252.504Z" style="fill-opacity:0;"/>
            </g>
            <g transform="matrix(1,0,0,-1,42.7198,700.106)">
                <path d="M1096.16,309.881L1181.56,310.106L1138.86,236.764C1138.86,236.764 1095,309.881 1096.16,309.881Z" style="fill:rgb(31,183,224);"/>
                <path d="M1096.16,317.881C1094.29,317.881 1092.74,317.29 1091.45,316.348C1090.06,315.342 1088.74,313.817 1088.28,311.318C1088.2,310.884 1087.92,308.039 1090,304.096C1096.3,292.189 1132,232.649 1132,232.649C1133.45,230.223 1136.08,228.746 1138.91,228.764C1141.74,228.783 1144.35,230.294 1145.77,232.739L1188.47,306.081C1189.91,308.558 1189.92,311.619 1188.49,314.102C1187.06,316.586 1184.4,318.113 1181.54,318.106L1096.14,317.881L1096.16,317.881ZM1138.77,252.504L1167.62,302.069L1109.58,301.917C1117.41,288.333 1130.67,266.06 1138.77,252.504Z" style="fill-opacity:0;"/>
            </g>
            <g transform="matrix(1,0,0,1,20.8607,-31.8736)">
                <ellipse cx="1160.7" cy="378" rx="42.697" ry="37" style="stroke:black;stroke-opacity:0;stroke-width:16px;"/>
            </g>
            <g transform="matrix(1,0,0,1,250.366,-10.1056)">
                <path d="M1096.16,309.881L1181.56,310.106L1138.86,236.764C1138.86,236.764 1095,309.881 1096.16,309.881Z" style="fill:rgb(31,183,224);"/>
                <path d="M1096.14,317.881L1181.54,318.106C1184.4,318.113 1187.06,316.586 1188.49,314.102C1189.92,311.619 1189.91,308.558 1188.47,306.081L1145.77,232.739C1144.35,230.294 1141.74,228.783 1138.91,228.764C1136.08,228.746 1133.45,230.223 1132,232.649C1132,232.649 1096.3,292.189 1090,304.096C1087.92,308.039 1088.2,310.884 1088.28,311.318C1088.74,313.817 1090.06,315.342 1091.45,316.348C1092.74,317.29 1094.29,317.881 1096.16,317.881L1096.14,317.881ZM1138.77,252.504C1130.67,266.057 1117.41,288.331 1109.58,301.917L1167.62,302.069L1138.77,252.504Z" style="fill-opacity:0;"/>
            </g>
            <g transform="matrix(1,0,0,-1,251.935,700.106)">
                <path d="M1096.16,309.881L1181.56,310.106L1138.86,236.764C1138.86,236.764 1095,309.881 1096.16,309.881Z" style="fill:rgb(31,183,224);"/>
                <path d="M1096.16,317.881C1094.29,317.881 1092.74,317.29 1091.45,316.348C1090.06,315.342 1088.74,313.817 1088.28,311.318C1088.2,310.884 1087.92,308.039 1090,304.096C1096.3,292.189 1132,232.649 1132,232.649C1133.45,230.223 1136.08,228.746 1138.91,228.764C1141.74,228.783 1144.35,230.294 1145.77,232.739L1188.47,306.081C1189.91,308.558 1189.92,311.619 1188.49,314.102C1187.06,316.586 1184.4,318.113 1181.54,318.106L1096.14,317.881L1096.16,317.881ZM1138.77,252.504L1167.62,302.069L1109.58,301.917C1117.41,288.333 1130.67,266.06 1138.77,252.504Z" style="fill-opacity:0;"/>
            </g>
            <g transform="matrix(1,0,0,1,230.076,-31.8736)">
                <ellipse cx="1160.7" cy="378" rx="42.697" ry="37" style="stroke:black;stroke-opacity:0;stroke-width:16px;"/>
            </g>
            <path d="M1291.21,381.999C1272.2,382.703 1275.92,395.382 1258.35,436.954C1255.84,442.903 1227.83,463.254 1233.64,467.116C1263.59,487.009 1321.79,489.566 1348.79,467.565C1357.65,460.344 1321.86,443.28 1316.41,433.73C1304.54,412.942 1310.22,381.295 1291.21,381.999Z" style="fill:rgb(224,54,109);fill-opacity:0.97;"/>
            <path d="M1251.12,433.519C1259.82,412.89 1263.27,399.407 1266.9,390.985C1269.4,385.18 1272.18,381.283 1275.75,378.622C1279.46,375.857 1284.13,374.255 1290.92,374.004C1302.54,373.574 1308.8,380.25 1312.47,391.415C1315.94,401.953 1316.51,417.768 1323.35,429.764C1324.52,431.81 1327.72,434.077 1331.27,436.734C1338.57,442.199 1347.56,448.218 1352.48,453.316C1360.18,461.281 1359.94,468.793 1353.84,473.766C1341.93,483.47 1324.6,489.065 1305.88,490.613C1278.58,492.87 1248.47,486.571 1229.21,473.78C1224.93,470.935 1222.88,465.85 1226.81,459.056C1229.63,454.196 1237.84,446.577 1244.57,440.251C1247.35,437.637 1250.68,433.999 1251.12,433.519ZM1340.15,463.978C1338.28,462.193 1335.54,459.692 1333.18,457.931C1327.03,453.339 1319.99,448.58 1315.35,444.461C1312.63,442.051 1310.61,439.713 1309.46,437.697C1303.14,426.628 1301.3,412.726 1298.7,401.627C1297.9,398.225 1297.06,395.15 1295.76,392.732C1294.86,391.068 1293.64,389.914 1291.51,389.993C1288.79,390.094 1286.8,390.34 1285.31,391.451C1283.68,392.666 1282.73,394.664 1281.59,397.316C1277.95,405.76 1274.5,419.308 1265.72,440.069C1264.89,442.035 1262.3,445.357 1258.55,449.02C1254.59,452.891 1247.8,459.789 1243.82,463.849C1260.4,472.555 1283.48,476.411 1304.56,474.668C1318.01,473.555 1330.7,470.191 1340.15,463.978Z" style="fill-opacity:0;"/>
            <g transform="matrix(0.872706,0,0,0.769648,166.135,110.851)">
                <path d="M1138.86,500.257C1138.86,500.257 1172.54,531.606 1207.58,531.606C1237.86,531.606 1268.1,500.257 1291.21,500.257C1313.34,500.257 1339.43,531.606 1368,531.606C1402.65,531.606 1438.09,500.257 1438.09,500.257C1355.4,668.247 1244.77,677.789 1138.86,500.257Z" style="fill:rgb(255,0,0);"/>
                <path d="M1144.68,492.223C1141.16,488.947 1136.05,489.097 1132.69,492.575C1129.32,496.053 1128.72,501.804 1131.27,506.081C1186.57,598.789 1243.86,641.466 1297.37,640.22C1351.16,638.968 1402.69,593.5 1446.1,505.323C1448.22,501.004 1447.37,495.585 1444.06,492.366C1440.75,489.146 1435.89,489.019 1432.45,492.061C1432.45,492.061 1399.91,521.212 1368,521.212C1352.32,521.212 1337.62,510.367 1323.86,502.106C1312.37,495.202 1301.37,489.863 1291.21,489.863C1280.8,489.863 1269.01,495.143 1256.55,501.919C1241.14,510.295 1224.44,521.212 1207.58,521.212C1175.46,521.212 1144.68,492.223 1144.68,492.223ZM1411.2,529.991C1398.37,536.522 1383.11,542 1368,542C1352.24,542 1337.05,533.736 1322.85,525.087C1311.47,518.153 1301,510.651 1291.21,510.651C1280.79,510.651 1268.92,518.215 1256.09,525.282C1240.6,533.808 1224.05,542 1207.58,542C1195.16,542 1182.9,538.394 1172.01,533.538C1214.15,591.958 1256.27,620.384 1297,619.436C1338.05,618.48 1376.57,587.541 1411.2,529.991Z" style="fill:rgb(255,0,0);"/>
            </g>
            <g transform="matrix(0.872706,0,0,0.769648,166.135,110.851)">
                <path d="M1138.86,505.62C1138.86,505.62 1235.39,612.421 1288.48,609.564C1358.89,605.773 1438.09,500.257 1438.09,500.257C1386.8,550.416 1203.06,562.795 1138.86,505.62Z" style="fill:white;"/>
            </g>
        </g>
    </g>
</svg>
